<?xml version="1.0" standalone="no"?>
<!DOCTYPE svg PUBLIC "-//W3C//DTD SVG 20010904//EN"
 "http://www.w3.org/TR/2001/REC-SVG-20010904/DTD/svg10.dtd">
<svg version="1.0" xmlns="http://www.w3.org/2000/svg"
 width="341.000000pt" height="341.000000pt" viewBox="0 0 341.000000 341.000000"
 preserveAspectRatio="xMidYMid meet">
<metadata>
Created by potrace 1.11, written by Peter Selinger 2001-2013
</metadata>
<g transform="translate(0.000000,341.000000) scale(0.100000,-0.100000)"
fill="#000000" stroke="none">
<path d="M10 1705 l0 -1705 1700 0 1700 0 0 1705 0 1705 -1700 0 -1700 0 0
-1705z m2130 371 l5 -539 203 227 204 226 205 0 204 0 -77 -100 c-85 -112
-302 -352 -340 -376 -13 -9 -24 -22 -24 -28 0 -6 25 -36 56 -66 86 -84 226
-250 336 -396 54 -73 98 -135 98 -138 0 -3 -90 -6 -199 -6 l-199 0 -176 195
-177 195 -79 -59 c-271 -202 -614 -350 -925 -402 -106 -17 -298 -15 -375 5
-179 45 -333 163 -404 308 -50 103 -67 176 -67 293 -1 286 183 513 473 587 67
17 102 19 202 16 103 -4 133 -9 203 -36 201 -75 342 -230 389 -430 12 -49 15
-95 11 -175 -5 -95 -4 -108 10 -105 25 5 54 51 64 99 4 24 5 308 2 630 -3 322
-3 594 0 603 6 15 26 16 189 14 l183 -3 5 -539z"/>
<path d="M964 1692 c-70 -25 -124 -71 -160 -134 -26 -48 -29 -61 -29 -148 0
-83 3 -101 27 -145 116 -219 420 -200 508 31 42 113 14 249 -68 331 -72 72
-185 98 -278 65z"/>
</g>
</svg>
